<?xml version="1.0" standalone="no"?>
<!DOCTYPE svg PUBLIC "-//W3C//DTD SVG 20010904//EN"
 "http://www.w3.org/TR/2001/REC-SVG-20010904/DTD/svg10.dtd">
<svg version="1.0" xmlns="http://www.w3.org/2000/svg"
 width="480.000000pt" height="480.000000pt" viewBox="0 0 480.000000 480.000000"
 preserveAspectRatio="xMidYMid meet">
<metadata>
Created by potrace 1.14, written by Peter Selinger 2001-2017
</metadata>
<g transform="translate(0.000000,480.000000) scale(0.100000,-0.100000)"
fill="#000000" stroke="none">
<path d="M1429 4496 c-2 -2 -21 -6 -42 -9 -46 -6 -141 -43 -184 -73 -212 -143
-310 -397 -298 -774 2 -85 7 -171 10 -190 6 -39 11 -73 21 -141 l6 -45 -113
-44 c-484 -184 -766 -435 -820 -727 -10 -54 -6 -204 6 -224 4 -5 8 -18 10 -29
9 -45 70 -155 124 -223 151 -186 380 -328 764 -469 30 -12 30 -11 17 -93 -18
-117 -21 -152 -25 -300 -7 -268 31 -440 130 -595 242 -377 728 -340 1272 97
l93 74 92 -74 c95 -76 192 -144 263 -185 110 -63 281 -135 354 -149 14 -2 27
-6 31 -8 3 -2 44 -7 91 -11 119 -9 216 8 314 56 135 66 235 185 293 350 43
123 56 215 56 395 1 156 -1 185 -24 348 -11 80 -9 97 15 97 8 0 59 18 113 39
535 213 811 500 798 830 -9 223 -139 414 -404 593 -96 65 -297 165 -429 213
-57 21 -103 43 -103 49 0 6 4 38 10 71 18 117 21 152 25 300 7 269 -31 442
-131 595 -56 86 -87 119 -159 167 -99 67 -178 88 -320 87 -99 -1 -137 -6 -215
-28 -176 -50 -381 -165 -577 -322 l-93 -74 -105 84 c-212 168 -399 268 -604
323 -51 14 -252 28 -262 19z m255 -331 c124 -43 289 -140 427 -251 l68 -55
-107 -122 c-59 -67 -138 -161 -176 -209 -46 -61 -74 -88 -89 -89 -32 -1 -98
-8 -132 -14 -16 -3 -59 -9 -95 -15 -77 -12 -100 -16 -205 -37 -130 -25 -145
-27 -146 -12 0 8 -2 23 -4 34 -17 106 -20 152 -19 295 0 123 4 181 17 230 42
159 101 236 207 271 44 15 175 1 254 -26z m1741 1 c79 -47 133 -142 159 -281
15 -79 16 -367 2 -425 -4 -14 -9 -43 -12 -65 -2 -21 -7 -41 -9 -43 -2 -2 -50
5 -107 16 -111 23 -130 26 -228 41 -121 19 -194 28 -236 30 -15 1 -46 31 -95
94 -82 104 -173 210 -237 277 l-42 45 36 32 c41 36 215 161 254 182 187 101
287 133 398 127 55 -4 83 -11 117 -30z m-938 -609 l72 -82 -79 -3 c-44 -2
-116 -2 -161 0 l-81 3 71 75 c38 41 70 78 71 83 1 25 45 -6 107 -76z m293
-399 c8 -2 20 -7 27 -11 13 -8 122 -171 198 -297 96 -159 235 -424 235 -449 0
-42 -213 -425 -348 -626 -74 -110 -91 -130 -117 -134 -37 -6 -639 -7 -718 -2
-53 4 -61 8 -86 40 -114 149 -411 670 -411 721 0 52 298 573 411 721 26 33 32
36 86 38 32 1 59 4 62 6 4 5 640 -2 661 -7z m-1186 -60 c-37 -59 -144 -243
-164 -281 -14 -26 -27 -47 -30 -47 -3 0 -26 62 -52 138 -30 92 -42 139 -34
143 10 6 182 42 246 52 14 2 29 5 33 6 5 0 5 -4 1 -11z m1745 -13 c69 -14 133
-28 142 -31 14 -4 10 -24 -30 -144 -25 -77 -48 -140 -51 -140 -3 0 -38 58 -78
128 -39 70 -84 146 -98 170 -14 23 -23 42 -19 42 4 0 64 -11 134 -25z m-2284
-245 c20 -63 66 -188 101 -277 l65 -162 -65 -163 c-35 -90 -81 -217 -102 -283
-21 -66 -39 -121 -39 -122 -2 -4 -100 34 -185 69 -249 106 -430 244 -498 378
-38 77 -38 163 1 241 45 93 155 193 314 287 101 60 366 170 370 154 1 -4 18
-59 38 -122z m2810 100 c289 -103 530 -271 602 -418 60 -122 28 -248 -93 -367
-53 -51 -174 -145 -189 -145 -2 0 -28 -14 -57 -31 -60 -36 -181 -90 -277 -124
l-64 -23 -47 142 c-26 77 -73 206 -104 285 -47 117 -56 148 -47 165 26 53 123
313 158 423 30 97 41 122 53 117 8 -3 38 -14 65 -24z m-2442 -942 c29 -58 84
-154 119 -209 19 -30 41 -65 47 -78 12 -22 11 -23 -16 -17 -15 4 -41 9 -58 11
-16 3 -64 13 -105 22 -41 9 -81 16 -87 16 -7 0 -13 7 -13 16 0 22 83 271 90
271 3 0 14 -15 23 -32z m2029 -105 c30 -93 42 -140 34 -144 -10 -6 -169 -39
-254 -53 l-34 -6 26 43 c14 23 59 99 98 169 40 70 75 128 78 128 3 0 26 -62
52 -137z m-2150 -452 c13 -5 41 -11 63 -14 22 -4 65 -11 95 -17 65 -13 176
-29 241 -36 26 -3 55 -7 65 -9 11 -2 29 -4 41 -4 15 -1 43 -28 90 -88 55 -71
179 -219 203 -243 3 -3 22 -24 43 -47 l39 -41 -69 -55 c-148 -119 -314 -214
-448 -258 -51 -17 -93 -23 -156 -23 -75 0 -91 3 -132 27 -125 74 -179 235
-172 522 2 88 5 169 8 180 2 11 8 41 11 68 6 41 10 47 31 47 13 0 34 -4 47 -9z
m2269 -8 c0 -10 3 -29 5 -43 22 -113 28 -395 10 -470 -3 -14 -9 -38 -12 -55
-10 -48 -58 -147 -89 -183 -99 -118 -302 -104 -552 38 -73 41 -223 146 -277
193 l-37 32 43 45 c24 25 70 77 103 115 33 39 62 72 65 75 3 3 36 44 74 93 47
60 74 87 89 88 12 0 31 2 42 3 11 2 49 6 85 10 35 4 67 9 70 11 3 1 30 6 60 9
30 4 105 18 165 31 138 29 155 30 156 8z m-1027 -125 c-10 -12 -38 -43 -61
-68 -23 -25 -50 -55 -61 -68 -17 -19 -22 -21 -33 -9 -16 16 -91 99 -128 140
l-24 27 163 0 163 0 -19 -22z"/>
<path d="M2292 2836 c-83 -21 -142 -55 -208 -122 -179 -180 -179 -451 1 -629
144 -142 337 -173 525 -82 37 18 48 27 110 88 169 168 172 440 6 618 -41 44
-119 95 -181 116 -66 22 -186 28 -253 11z"/>
</g>
</svg>
